<?xml version="1.0" standalone="no"?>
<!DOCTYPE svg PUBLIC "-//W3C//DTD SVG 20010904//EN"
 "http://www.w3.org/TR/2001/REC-SVG-20010904/DTD/svg10.dtd">
<svg version="1.0" xmlns="http://www.w3.org/2000/svg"
 width="500.000000pt" height="500.000000pt" viewBox="0 0 500.000000 500.000000"
 preserveAspectRatio="xMidYMid meet">

<g transform="translate(0.000000,500.000000) scale(0.100000,-0.100000)"
fill="#000000" stroke="none">
<path d="M1301 3135 c-30 -9 -70 -25 -90 -37 -20 -12 -152 -136 -293 -276
l-257 -256 -22 20 c-12 10 -35 39 -50 63 -70 110 -58 225 34 317 56 56 99 74
180 74 26 0 64 -7 85 -16 60 -25 152 -16 152 15 0 18 -98 71 -159 87 -157 40
-312 -31 -392 -178 -32 -59 -34 -69 -34 -158 1 -155 8 -166 318 -474 l261
-260 -54 -48 c-31 -28 -74 -54 -103 -64 -133 -44 -282 33 -321 167 -21 69 -20
86 5 163 23 69 21 124 -6 146 -12 10 -20 3 -44 -36 -74 -116 -82 -249 -21
-363 62 -115 153 -172 290 -179 71 -3 95 0 145 18 53 20 81 43 245 204 102 99
224 219 272 265 l88 85 35 -34 c138 -133 87 -363 -93 -424 -61 -21 -101 -20
-174 5 -66 22 -117 20 -138 -6 -9 -11 -4 -20 30 -44 65 -47 129 -64 224 -59
134 8 232 73 292 194 26 52 29 70 29 149 0 149 -9 163 -315 470 l-260 261 42
41 c24 23 63 51 88 62 58 26 150 27 205 2 61 -28 121 -99 141 -168 16 -55 16
-61 -2 -123 -21 -75 -24 -154 -7 -171 18 -18 43 8 79 79 25 51 29 67 29 152 0
89 -2 99 -34 158 -19 34 -52 79 -74 98 -85 77 -217 109 -326 79z m-23 -468
l182 -182 -180 -180 -180 -180 -185 185 -185 185 177 177 c98 98 180 178 183
178 3 0 87 -82 188 -183z"/>
<path d="M2423 2720 c-13 -5 -23 -11 -23 -13 0 -2 -29 -100 -65 -217 -70 -229
-70 -232 -15 -244 34 -8 44 1 61 54 l14 45 69 0 69 0 17 -49 c9 -28 22 -52 29
-54 23 -8 71 20 71 40 0 12 -27 109 -60 217 -62 202 -78 232 -124 230 -11 0
-31 -4 -43 -9z m83 -267 l6 -33 -50 0 -51 0 20 73 c33 121 31 118 51 52 10
-33 21 -75 24 -92z"/>
<path d="M3722 2712 c-9 -9 -46 -111 -80 -225 -67 -221 -68 -228 -16 -241 34
-9 49 6 63 60 l12 45 71 -3 71 -3 14 -48 c8 -26 21 -51 29 -54 20 -8 74 17 74
34 0 8 -27 105 -61 216 -41 135 -67 208 -81 220 -26 22 -73 22 -96 -1z m98
-284 c0 -5 -22 -8 -50 -8 -27 0 -50 1 -50 3 0 5 41 153 46 167 5 12 53 -135
54 -162z"/>
<path d="M1990 2698 c-54 -37 -60 -57 -60 -218 0 -165 11 -199 75 -226 104
-43 223 7 241 102 8 46 -9 66 -55 62 -32 -3 -36 -7 -44 -41 -7 -27 -17 -41
-34 -48 -33 -12 -75 8 -84 41 -11 41 -10 194 2 229 21 59 101 52 117 -11 8
-30 12 -33 47 -33 50 0 63 20 47 74 -18 60 -60 85 -147 89 -60 3 -75 0 -105
-20z"/>
<path d="M2707 2713 c-4 -3 -7 -107 -7 -230 l0 -223 25 -12 c19 -8 31 -8 50 0
24 11 25 16 25 92 l0 80 55 0 c101 0 158 42 171 125 9 63 -13 124 -55 152 -30
21 -46 23 -146 23 -61 0 -115 -3 -118 -7z m203 -93 c23 -23 27 -77 7 -104 -9
-12 -31 -20 -65 -24 l-52 -5 0 77 0 76 45 0 c32 0 51 -6 65 -20z"/>
<path d="M3087 2714 c-4 -4 -7 -108 -7 -231 l0 -223 25 -12 c19 -8 31 -8 50 0
l25 12 -2 227 -3 228 -40 3 c-23 2 -44 0 -48 -4z"/>
<path d="M3225 2700 c-14 -43 2 -59 63 -62 l57 -3 3 -191 2 -192 26 -6 c36 -9
61 1 68 27 3 12 6 100 6 195 l0 172 54 0 c46 0 56 3 61 20 3 11 3 29 0 40 -6
19 -15 20 -170 20 -155 0 -164 -1 -170 -20z"/>
<path d="M4017 2714 c-4 -4 -7 -110 -7 -235 0 -198 2 -228 16 -233 9 -3 67 -6
130 -6 111 0 115 1 125 24 8 17 8 29 0 44 -10 18 -22 22 -94 24 l-82 3 -5 190
-5 190 -35 3 c-20 2 -39 0 -43 -4z"/>
<path d="M4347 2714 c-4 -4 -7 -110 -7 -235 0 -198 2 -228 16 -233 9 -3 67 -6
130 -6 111 0 115 1 125 24 8 17 8 29 0 44 -10 18 -22 22 -94 24 l-82 3 -5 190
-5 190 -35 3 c-20 2 -39 0 -43 -4z"/>
</g>
</svg>
